<?xml version="1.0" standalone="no"?><!DOCTYPE svg PUBLIC "-//W3C//DTD SVG 1.1//EN" "http://www.w3.org/Graphics/SVG/1.1/DTD/svg11.dtd"><svg t="1554282539788" class="icon" style="" viewBox="0 0 1024 1024" version="1.1" xmlns="http://www.w3.org/2000/svg" p-id="2123" xmlns:xlink="http://www.w3.org/1999/xlink" width="200" height="200"><defs><style type="text/css"></style></defs><path d="M512 341.333333c-93.866667 0-170.666667 76.8-170.666667 170.666667s76.8 170.666667 170.666667 170.666667 170.666667-76.8 170.666667-170.666667-76.8-170.666667-170.666667-170.666667z m0 298.666667c-70.4 0-128-57.6-128-128s57.6-128 128-128 128 57.6 128 128-57.6 128-128 128z" fill="#666767" p-id="2124"></path><path d="M512 149.333333C121.6 149.333333 0 512 0 512s134.4 362.666667 512 362.666667 512-362.666667 512-362.666667S902.4 149.333333 512 149.333333z m0 682.666667C206.933333 832 74.666667 576 46.933333 512 72.533333 448 198.4 192 512 192c315.733333 0 439.466667 253.866667 465.066667 320-27.733333 61.866667-162.133333 320-465.066667 320z" fill="#666767" p-id="2125"></path></svg>